<?xml version="1.0" encoding="UTF-8" standalone="no"?>
<!-- Created with Inkscape (http://www.inkscape.org/) -->

<svg
   width="276.73691mm"
   height="319.22238mm"
   viewBox="0 0 276.73691 319.22238"
   version="1.1"
   id="svg5"
   xml:space="preserve"
   inkscape:version="1.2.2 (b0a8486541, 2022-12-01)"
   sodipodi:docname="logo.svg"
   xmlns:inkscape="http://www.inkscape.org/namespaces/inkscape"
   xmlns:sodipodi="http://sodipodi.sourceforge.net/DTD/sodipodi-0.dtd"
   xmlns="http://www.w3.org/2000/svg"
   xmlns:svg="http://www.w3.org/2000/svg"><sodipodi:namedview
     id="namedview7"
     pagecolor="#ffffff"
     bordercolor="#000000"
     borderopacity="0.25"
     inkscape:showpageshadow="2"
     inkscape:pageopacity="0.0"
     inkscape:pagecheckerboard="0"
     inkscape:deskcolor="#d1d1d1"
     inkscape:document-units="mm"
     showgrid="false"
     inkscape:zoom="0.27846006"
     inkscape:cx="125.69128"
     inkscape:cy="895.99925"
     inkscape:window-width="1876"
     inkscape:window-height="1131"
     inkscape:window-x="0"
     inkscape:window-y="0"
     inkscape:window-maximized="1"
     inkscape:current-layer="layer1" /><defs
     id="defs2" /><g
     inkscape:label="Layer 1"
     inkscape:groupmode="layer"
     id="layer1"
     transform="translate(34.593007,28.066511)"><path
       sodipodi:type="star"
       style="fill:#ffffff;stroke:#000000;stroke-width:5.1435;stroke-dasharray:none;stroke-opacity:1"
       id="path366"
       inkscape:flatsided="true"
       sodipodi:sides="6"
       sodipodi:cx="-600.84583"
       sodipodi:cy="-29.351257"
       sodipodi:r1="85.821854"
       sodipodi:r2="42.910931"
       sodipodi:arg1="0.46249755"
       sodipodi:arg2="0.98609633"
       inkscape:rounded="0"
       inkscape:randomized="0"
       d="m -524.04034,8.9411369 -71.56493,47.3693071 -76.80549,-38.292394 -5.24055,-85.661702 71.56493,-47.369308 76.80549,38.292395 z"
       inkscape:transform-center-x="-9.834534e-05"
       transform="matrix(1.7940477,0.1129395,-0.1129395,1.7940477,1178.4066,252.06146)"
       inkscape:transform-center-y="2.2524406e-06" /><g
       id="g310"
       transform="translate(151.37615,34.223351)"><path
         d="m -31.261062,129.91819 c 1.699104,0.52499 3.216852,1.51773 4.381452,2.86355 l -11.979547,11.97952 c -3.20727,-2.50086 -4.180866,-6.92995 -2.329188,-10.55733 1.851823,-3.61781 6.013592,-5.42183 9.927283,-4.28594 z M -41.78011,88.070884 h -0.0099 c 2.271771,-2.18583 3.121339,-5.46947 2.195401,-8.476376 -0.525,-1.71818 -1.527277,-3.254928 -2.892251,-4.429088 l -11.979535,11.979536 c 1.164554,1.364997 2.691874,2.367273 4.400383,2.892251 2.911397,0.916357 6.089961,0.162267 8.276002,-1.966356 z m 60.233698,19.541556 c -116.247976,-114.0475866 -58.123985,-57.02378 0,0 z M 8.1638171,61.125687 c 5.0687319,4.705833 7.9514109,11.301828 7.9801139,18.222215 0.01914,6.911026 -2.825452,13.525965 -7.8463273,18.270063 L -16.759886,122.66527 c -4.20958,-4.53418 -10.089583,-7.16863 -16.284628,-7.28328 -6.185452,-0.11454 -12.160979,2.30049 -16.542218,6.67236 -4.381449,4.38145 -6.786804,10.35677 -6.672361,16.5518 0.114548,6.18545 2.749095,12.06547 7.283269,16.28462 l -5.316746,5.31674 v -0.0103 c -10.137237,9.9177 -26.375024,9.83177 -36.406165,-0.20047 -10.031545,-10.03236 -10.118295,-26.26913 -0.200458,-36.40617 l 26.318004,-26.317982 v -0.0103 c 4.209577,4.553092 10.089587,7.187752 16.284626,7.302192 6.195026,0.11444 12.170542,-2.2909 16.551796,-6.672348 4.381241,-4.381418 6.796371,-10.356735 6.672355,-16.551769 -0.114545,-6.194269 -2.749104,-12.083855 -7.292636,-16.293424 C -21.101505,51.425473 -3.9780968,48.848243 8.1647687,61.123666 Z M -75.626565,142.44185 c -3.837333,0.13363 -6.872738,3.28364 -6.872738,7.12097 0,3.83734 3.035405,6.98718 6.872738,7.12098 3.837327,-0.13365 6.88231,-3.28364 6.88231,-7.12098 0,-3.83733 -3.044983,-6.98718 -6.88231,-7.12097 z m 3.779904,-24.09226 c -3.837334,0.13364 -6.872738,3.28364 -6.872738,7.13055 0,3.83733 3.035404,6.98717 6.872738,7.12096 3.837326,-0.13364 6.882308,-3.28363 6.882308,-7.12096 0,-3.84691 -3.044982,-6.99676 -6.882308,-7.13055 z m 55.258846,-24.092219 0.0099,0.0099 c -3.837333,0.133645 -6.882314,3.283644 -6.882314,7.120959 0,3.83732 3.044981,6.98717 6.882314,7.12097 3.837331,-0.13364 6.8727407,-3.28365 6.8727407,-7.12097 0,-3.837315 -3.0354097,-6.987159 -6.8727407,-7.120959 z m 8.734178,-27.156986 0.00992,0.0099 c -3.83732,0.133631 -6.8823,3.27407 -6.8823,7.120973 0,3.837321 3.04498,6.987175 6.8823,7.120962 3.8373441,-0.133632 6.88231347,-3.283641 6.88231347,-7.120962 0,-3.846903 -3.04496937,-6.987187 -6.88231347,-7.120973 z"
         id="path9"
         style="fill:#800000;stroke-width:0.203636"
         sodipodi:nodetypes="ccccccccccccccccccccccccccccccsscccccscsccscscccscsccccscscc" /><path
         d="m 54.0001,81.657946 c -0.0949,4.9863 -4.5032,6.96175 -8.94586,6.43559 h -0.009 c -1.3544,10.99052 -5.79717,21.359364 -12.802,29.935504 9.82593,7.1861 -1.19911,19.03129 -8.75612,9.39455 L 4.2405,146.6702 c 9.41185,7.29819 -1.78573,18.48655 -9.07524,9.07525 l -19.24662,19.24661 c 9.50662,7.60884 -1.96699,18.55648 -9.33419,8.81649 -8.62674,6.89275 -19.02209,11.19756 -29.99439,12.42251 1.70809,12.31044 -14.57925,12.30179 -12.8712,0 -10.96457,-1.24225 -21.35936,-5.54706 -29.99439,-12.42251 -7.47946,9.89495 -18.96135,-1.6132 -9.07524,-9.07525 -6.89274,-8.62674 -11.19756,-19.02208 -12.42251,-29.99438 -12.31044,1.70808 -12.30179,-14.57925 0,-12.8712 1.22498,-10.97322 5.52977,-21.36856 12.42251,-29.99439 -9.74827,-7.194754 1.33714,-18.935594 8.81649,-9.334194 l 19.24661,-19.24661 c -9.41185,-7.29818 1.78573,-18.48654 9.07524,-9.07525 l 19.24702,-19.246607 c -8.36799,-6.07323 -0.41408,-17.15006 7.34143,-10.81789 l 2.12213,2.06177 c 8.57504,-6.95311 18.91904,-11.38731 29.86557,-12.802 -1.44929,-11.97383 14.38951,-11.89635 12.8712,0.0604 10.94728,1.39754 21.28207,5.86618 29.80483,12.87119 7.66056,-10.24001 19.30735,1.42342 9.07525,9.07525 6.99636,8.531777 11.45632,18.858287 12.87119,29.804827 4.46861,-0.52624 8.92011,1.41479 9.01489,6.4356 z M 12.25678,56.201906 C 5.56242,49.291866 -3.64239,45.366719 -13.26183,45.332309 c -9.61889,-0.0345 -18.8491,3.821707 -25.5867,10.688507 l -56.63563,56.635624 c -32.79912,34.95603 16.31325,84.11054 51.29487,51.29486 l 56.63563,-56.63562 -0.009,-0.009 c 6.87545,-6.73703 10.74023,-15.967794 10.70581,-25.586314 -0.0431,-9.62735 -3.96821,-18.83253 -10.8869,-25.51861 z m -25.25895,45.488674 c 77.72684,-65.566677 38.86342,-32.78334 0,0 z"
         id="path9-3"
         style="fill:#b3b3b3;stroke-width:0.184037"
         sodipodi:nodetypes="ccccccccccccccccccccccccccccccccccccccccc" /></g><path
       d="m 95.860363,52.313061 c -0.756671,-0.158828 -1.529361,-0.02047 -2.158826,0.386368 -0.629239,0.406616 -1.066746,1.050648 -1.221761,1.798309 l -0.389214,1.807758 c -0.982916,-0.451748 -2.102568,-0.354802 -2.941337,0.254931 -0.833368,0.61096 -1.26074,1.63893 -1.123768,2.7022 l 0.07042,0.902698 -4.199298,-5.023937 4.747633,-14.825578 c 0.324541,-0.992872 0.09652,-2.111961 -0.599193,-2.944801 l -9.857526,-11.79329 c -0.696139,-0.832503 -1.757114,-1.255326 -2.791789,-1.112091 l -17.101249,2.274557 c -0.51317,0.07706 -0.990083,0.29085 -1.382784,0.619104 -0.392701,0.328231 -0.687679,0.759686 -0.854574,1.251009 l -5.272242,16.426507 c -0.351596,0.995043 -0.140459,2.131906 0.554465,2.982194 l 9.857515,11.79329 c 0.696128,0.832503 1.757114,1.255329 2.791789,1.112104 l 15.432656,-2.042284 4.199298,5.023938 -0.873214,-0.27176 c -0.677994,-0.219575 -1.398555,-0.194084 -2.034859,0.07155 -0.636326,0.266023 -1.147763,0.754871 -1.44372,1.381209 -0.29616,0.626089 -0.358166,1.349001 -0.175174,2.042002 l -1.848144,0.06232 c -0.763263,0.01991 -1.474712,0.336196 -1.98652,0.883372 -0.512034,0.547322 -0.78529,1.283238 -0.763219,2.056041 l 0.642278,23.502481 c 0.02284,0.79889 0.35929,1.572709 0.935051,2.150699 0.575974,0.57822 1.344254,0.91343 2.135641,0.93187 0.791398,0.0184 1.541499,-0.2814 2.084941,-0.8333 0.543677,-0.55208 0.836248,-1.311248 0.813412,-2.110183 L 80.539154,73.13301 84.086928,86.834852 c 0.300232,1.023234 1.100708,1.841169 2.11114,2.156779 1.010455,0.315609 2.083658,0.08302 2.829778,-0.613311 0.746175,-0.696262 1.056475,-1.754898 0.81852,-2.791822 l -3.274867,-12.647842 6.027081,-0.10968 0.178987,-0.149616 0.389438,-0.12517 1.409523,-1.178171 0.192273,-0.361045 0.201373,-0.168312 1.211288,-5.780282 11.866288,5.466652 c 0.97814,0.418125 2.07505,0.300559 2.89274,-0.310266 0.81758,-0.610813 1.23693,-1.6257 1.10557,-2.67609 -0.13134,-1.050412 -0.79432,-1.98327 -1.74804,-2.460273 L 97.442877,59.1642 117.6541,63.384501 c 1.05391,0.22125 2.11552,-0.136499 2.78538,-0.938393 0.66935,-0.80196 0.84514,-1.926348 0.46098,-2.949526 -0.38459,-1.023245 -1.27039,-1.789827 -2.32436,-2.011145 z m -38.922616,-6.689865 4.217792,-13.141201 13.680997,-1.819649 7.629461,9.127696 -4.21778,13.1412 -13.680998,1.81965 z"
       id="path122"
       style="stroke-width:0.07984"
       sodipodi:nodetypes="cccccccccccccscccccccccccccccscccccsccccccccccccscccccccccccccc" /><path
       d="m 59.235867,45.095978 3.458268,-10.774784 11.217375,-1.491973 6.255576,7.484015 -3.458258,10.774783 -11.217375,1.491974 z"
       style="stroke-width:0.0654627"
       id="path1890" /></g></svg>
